<svg version="1.1" viewBox="0.0 0.0 763.5485564304462 210.10761154855643" fill="none" stroke="none" stroke-linecap="square" stroke-miterlimit="10" xmlns:xlink="http://www.w3.org/1999/xlink" xmlns="http://www.w3.org/2000/svg"><clipPath id="p.0"><path d="m0 0l763.5486 0l0 210.1076l-763.5486 0l0 -210.1076z" clip-rule="nonzero"/></clipPath><g clip-path="url(#p.0)"><path fill="#000000" fill-opacity="0.0" d="m0 0l763.5486 0l0 210.1076l-763.5486 0z" fill-rule="evenodd"/><path fill="#ffe599" d="m4.0892386 98.53674l182.33072 0l0 107.90552l-182.33072 0z" fill-rule="evenodd"/><path fill="#000000" d="m75.570175 146.70888l1.6875 0l3.953125 9.65625l0.140625 0l3.953125 -9.65625l1.671875 0l0 11.640625l-1.3125 0l0 -8.84375l-0.109375 0l-3.640625 8.84375l-1.265625 0l-3.640625 -8.84375l-0.109375 0l0 8.84375l-1.328125 0l0 -11.640625zm17.711487 11.828125q-1.265625 0 -2.1875 -0.5625q-0.90625 -0.5625 -1.40625 -1.5625q-0.484375 -1.015625 -0.484375 -2.359375q0 -1.34375 0.484375 -2.359375q0.5 -1.03125 1.375 -1.609375q0.890625 -0.578125 2.078125 -0.578125q0.6875 0 1.34375 0.234375q0.671875 0.21875 1.21875 0.734375q0.546875 0.5 0.859375 1.34375q0.328125 0.828125 0.328125 2.046875l0 0.578125l-6.734375 0l0 -1.15625l5.375 0q0 -0.75 -0.296875 -1.328125q-0.296875 -0.578125 -0.828125 -0.90625q-0.53125 -0.34375 -1.265625 -0.34375q-0.796875 0 -1.390625 0.40625q-0.578125 0.390625 -0.890625 1.03125q-0.3125 0.625 -0.3125 1.34375l0 0.765625q0 0.984375 0.34375 1.671875q0.34375 0.6875 0.953125 1.046875q0.625 0.359375 1.4375 0.359375q0.53125 0 0.953125 -0.15625q0.421875 -0.15625 0.734375 -0.453125q0.3125 -0.3125 0.484375 -0.765625l1.296875 0.375q-0.203125 0.65625 -0.6875 1.15625q-0.484375 0.484375 -1.203125 0.765625q-0.703125 0.28125 -1.578125 0.28125zm9.443069 -8.921875l0 1.140625l-4.515625 0l0 -1.140625l4.515625 0zm-3.203125 -2.078125l1.34375 0l0 8.3125q0 0.5625 0.171875 0.84375q0.171875 0.28125 0.421875 0.375q0.265625 0.09375 0.5625 0.09375q0.234375 0 0.375 -0.015625q0.140625 -0.03125 0.21875 -0.046875l0.28125 1.203125q-0.140625 0.046875 -0.390625 0.09375q-0.234375 0.0625 -0.609375 0.0625q-0.578125 0 -1.125 -0.234375q-0.53125 -0.25 -0.890625 -0.75q-0.359375 -0.5 -0.359375 -1.265625l0 -8.671875zm7.80249 11.015625q-0.828125 0 -1.515625 -0.3125q-0.671875 -0.3125 -1.078125 -0.90625q-0.390625 -0.609375 -0.390625 -1.46875q0 -0.75 0.296875 -1.21875q0.296875 -0.46875 0.78125 -0.734375q0.5 -0.265625 1.09375 -0.390625q0.609375 -0.140625 1.21875 -0.21875q0.796875 -0.09375 1.296875 -0.140625q0.5 -0.0625 0.71875 -0.1875q0.234375 -0.140625 0.234375 -0.46875l0 -0.046875q0 -0.84375 -0.453125 -1.296875q-0.453125 -0.46875 -1.390625 -0.46875q-0.953125 0 -1.5 0.421875q-0.546875 0.421875 -0.765625 0.890625l-1.28125 -0.453125q0.34375 -0.796875 0.90625 -1.234375q0.578125 -0.453125 1.25 -0.625q0.6875 -0.1875 1.34375 -0.1875q0.421875 0 0.96875 0.109375q0.546875 0.09375 1.0625 0.40625q0.515625 0.296875 0.859375 0.921875q0.34375 0.609375 0.34375 1.65625l0 5.75l-1.34375 0l0 -1.1875l-0.0625 0q-0.140625 0.296875 -0.46875 0.625q-0.3125 0.3125 -0.84375 0.546875q-0.515625 0.21875 -1.28125 0.21875zm0.203125 -1.203125q0.796875 0 1.34375 -0.3125q0.546875 -0.3125 0.828125 -0.796875q0.28125 -0.5 0.28125 -1.046875l0 -1.234375q-0.078125 0.109375 -0.375 0.1875q-0.28125 0.078125 -0.65625 0.140625q-0.375 0.0625 -0.71875 0.109375q-0.34375 0.03125 -0.5625 0.0625q-0.53125 0.078125 -0.984375 0.234375q-0.453125 0.140625 -0.734375 0.4375q-0.265625 0.296875 -0.265625 0.8125q0 0.703125 0.515625 1.0625q0.53125 0.34375 1.328125 0.34375zm7.585129 -10.640625l0 11.640625l-1.328125 0l0 -11.640625l1.328125 0z" fill-rule="nonzero"/><path fill="#ffffff" d="m186.41995 98.53674l252.94489 0l0 47.433075l-252.94489 0z" fill-rule="evenodd"/><path fill="#000000" d="m287.52203 119.37891q-0.09375 -0.859375 -0.828125 -1.328125q-0.71875 -0.484375 -1.78125 -0.484375q-0.765625 0 -1.34375 0.25q-0.578125 0.25 -0.90625 0.6875q-0.3125 0.4375 -0.3125 1.0q0 0.46875 0.21875 0.796875q0.234375 0.328125 0.578125 0.546875q0.359375 0.21875 0.734375 0.359375q0.390625 0.140625 0.71875 0.21875l1.171875 0.328125q0.46875 0.109375 1.015625 0.328125q0.5625 0.203125 1.078125 0.5625q0.515625 0.359375 0.84375 0.921875q0.34375 0.5625 0.34375 1.390625q0 0.9375 -0.5 1.703125q-0.484375 0.765625 -1.421875 1.21875q-0.9375 0.4375 -2.28125 0.4375q-1.25 0 -2.171875 -0.40625q-0.90625 -0.40625 -1.421875 -1.125q-0.515625 -0.71875 -0.59375 -1.671875l1.453125 0q0.0625 0.65625 0.453125 1.09375q0.390625 0.421875 0.984375 0.640625q0.59375 0.203125 1.296875 0.203125q0.796875 0 1.4375 -0.265625q0.65625 -0.265625 1.03125 -0.734375q0.375 -0.484375 0.375 -1.125q0 -0.578125 -0.328125 -0.9375q-0.328125 -0.359375 -0.859375 -0.578125q-0.515625 -0.234375 -1.140625 -0.40625l-1.421875 -0.40625q-1.375 -0.40625 -2.171875 -1.125q-0.78125 -0.734375 -0.78125 -1.90625q0 -0.96875 0.53125 -1.703125q0.53125 -0.734375 1.421875 -1.140625q0.90625 -0.40625 2.015625 -0.40625q1.125 0 2.0 0.40625q0.875 0.390625 1.390625 1.09375q0.515625 0.6875 0.546875 1.5625l-1.375 0zm3.6731567 12.0l0 -12.0l1.28125 0l0 1.390625l0.171875 0q0.140625 -0.21875 0.40625 -0.578125q0.265625 -0.359375 0.765625 -0.640625q0.5 -0.28125 1.34375 -0.28125q1.109375 0 1.9375 0.5625q0.84375 0.546875 1.3125 1.5625q0.484375 1.0 0.484375 2.375q0 1.390625 -0.484375 2.40625q-0.46875 1.015625 -1.3125 1.578125q-0.828125 0.546875 -1.90625 0.546875q-0.84375 0 -1.359375 -0.28125q-0.5 -0.28125 -0.78125 -0.640625q-0.265625 -0.375 -0.40625 -0.609375l-0.125 0l0 4.609375l-1.328125 0zm1.3125 -7.625q0 0.984375 0.28125 1.734375q0.296875 0.75 0.84375 1.1875q0.5625 0.421875 1.375 0.421875q0.84375 0 1.40625 -0.453125q0.5625 -0.453125 0.84375 -1.203125q0.296875 -0.765625 0.296875 -1.6875q0 -0.921875 -0.28125 -1.65625q-0.28125 -0.75 -0.859375 -1.1875q-0.5625 -0.4375 -1.40625 -0.4375q-0.8125 0 -1.375 0.421875q-0.5625 0.40625 -0.84375 1.140625q-0.28125 0.734375 -0.28125 1.71875zm12.093658 4.546875q-1.265625 0 -2.1875 -0.5625q-0.90625 -0.5625 -1.40625 -1.5625q-0.484375 -1.015625 -0.484375 -2.359375q0 -1.34375 0.484375 -2.359375q0.5 -1.03125 1.375 -1.609375q0.890625 -0.578125 2.078125 -0.578125q0.6875 0 1.34375 0.234375q0.671875 0.21875 1.21875 0.734375q0.546875 0.5 0.859375 1.34375q0.328125 0.828125 0.328125 2.046875l0 0.578125l-6.734375 0l0 -1.15625l5.375 0q0 -0.75 -0.296875 -1.328125q-0.296875 -0.578125 -0.828125 -0.90625q-0.53125 -0.34375 -1.265625 -0.34375q-0.796875 0 -1.390625 0.40625q-0.578125 0.390625 -0.890625 1.03125q-0.3125 0.625 -0.3125 1.34375l0 0.765625q0 0.984375 0.34375 1.671875q0.34375 0.6875 0.953125 1.046875q0.625 0.359375 1.4375 0.359375q0.53125 0 0.953125 -0.15625q0.421875 -0.15625 0.734375 -0.453125q0.3125 -0.3125 0.484375 -0.765625l1.296875 0.375q-0.203125 0.65625 -0.6875 1.15625q-0.484375 0.484375 -1.203125 0.765625q-0.703125 0.28125 -1.578125 0.28125zm9.193054 0q-1.21875 0 -2.109375 -0.578125q-0.890625 -0.59375 -1.375 -1.609375q-0.46875 -1.015625 -0.46875 -2.3125q0 -1.328125 0.484375 -2.34375q0.5 -1.03125 1.375 -1.609375q0.890625 -0.578125 2.078125 -0.578125q0.921875 0 1.65625 0.34375q0.734375 0.34375 1.203125 0.953125q0.484375 0.609375 0.59375 1.4375l-1.34375 0q-0.15625 -0.59375 -0.6875 -1.0625q-0.515625 -0.46875 -1.40625 -0.46875q-0.78125 0 -1.375 0.40625q-0.578125 0.40625 -0.90625 1.140625q-0.328125 0.734375 -0.328125 1.734375q0 1.0 0.3125 1.75q0.328125 0.75 0.921875 1.171875q0.59375 0.421875 1.375 0.421875q0.53125 0 0.953125 -0.1875q0.421875 -0.1875 0.71875 -0.515625q0.296875 -0.34375 0.421875 -0.828125l1.34375 0q-0.109375 0.78125 -0.5625 1.390625q-0.4375 0.609375 -1.171875 0.984375q-0.734375 0.359375 -1.703125 0.359375zm10.900482 -3.75l0 -5.171875l1.328125 0l0 8.734375l-1.328125 0l0 -1.484375l-0.09375 0q-0.3125 0.671875 -0.96875 1.140625q-0.640625 0.453125 -1.625 0.453125q-0.8125 0 -1.453125 -0.359375q-0.640625 -0.359375 -1.0 -1.078125q-0.359375 -0.734375 -0.359375 -1.859375l0 -5.546875l1.328125 0l0 5.46875q0 0.953125 0.53125 1.515625q0.546875 0.5625 1.390625 0.5625q0.5 0 1.015625 -0.25q0.515625 -0.25 0.875 -0.78125q0.359375 -0.53125 0.359375 -1.34375zm5.123474 -8.078125l0 11.640625l-1.328125 0l0 -11.640625l1.328125 0zm5.029785 11.84375q-0.828125 0 -1.515625 -0.3125q-0.671875 -0.3125 -1.078125 -0.90625q-0.390625 -0.609375 -0.390625 -1.46875q0 -0.75 0.296875 -1.21875q0.296875 -0.46875 0.78125 -0.734375q0.5 -0.265625 1.09375 -0.390625q0.609375 -0.140625 1.21875 -0.21875q0.796875 -0.09375 1.296875 -0.140625q0.5 -0.0625 0.71875 -0.1875q0.234375 -0.140625 0.234375 -0.46875l0 -0.046875q0 -0.84375 -0.453125 -1.296875q-0.453125 -0.46875 -1.390625 -0.46875q-0.953125 0 -1.5 0.421875q-0.546875 0.421875 -0.765625 0.890625l-1.28125 -0.453125q0.34375 -0.796875 0.90625 -1.234375q0.578125 -0.453125 1.25 -0.625q0.6875 -0.1875 1.34375 -0.1875q0.421875 0 0.96875 0.109375q0.546875 0.09375 1.0625 0.40625q0.515625 0.296875 0.859375 0.921875q0.34375 0.609375 0.34375 1.65625l0 5.75l-1.34375 0l0 -1.1875l-0.0625 0q-0.140625 0.296875 -0.46875 0.625q-0.3125 0.3125 -0.84375 0.546875q-0.515625 0.21875 -1.28125 0.21875zm0.203125 -1.203125q0.796875 0 1.34375 -0.3125q0.546875 -0.3125 0.828125 -0.796875q0.28125 -0.5 0.28125 -1.046875l0 -1.234375q-0.078125 0.109375 -0.375 0.1875q-0.28125 0.078125 -0.65625 0.140625q-0.375 0.0625 -0.71875 0.109375q-0.34375 0.03125 -0.5625 0.0625q-0.53125 0.078125 -0.984375 0.234375q-0.453125 0.140625 -0.734375 0.4375q-0.265625 0.296875 -0.265625 0.8125q0 0.703125 0.515625 1.0625q0.53125 0.34375 1.328125 0.34375zm6.2569885 1.0l0 -8.734375l1.28125 0l0 1.328125l0.09375 0q0.25 -0.65625 0.875 -1.046875q0.625 -0.40625 1.40625 -0.40625q0.140625 0 0.359375 0q0.234375 0 0.34375 0.015625l0 1.359375q-0.078125 -0.015625 -0.3125 -0.046875q-0.234375 -0.03125 -0.515625 -0.03125q-0.625 0 -1.125 0.265625q-0.5 0.25 -0.796875 0.71875q-0.28125 0.46875 -0.28125 1.0625l0 5.515625l-1.328125 0z" fill-rule="nonzero"/><path fill="#efefef" d="m4.0892386 51.10105l755.37006 0l0 47.433067l-755.37006 0z" fill-rule="evenodd"/><path fill="#000000" d="m374.52872 72.67758l-1.40625 0q-0.125 -0.609375 -0.4375 -1.0625q-0.296875 -0.46875 -0.75 -0.78125q-0.4375 -0.3125 -0.96875 -0.46875q-0.53125 -0.171875 -1.109375 -0.171875q-1.0625 0 -1.921875 0.546875q-0.84375 0.53125 -1.359375 1.578125q-0.5 1.03125 -0.5 2.546875q0 1.5 0.5 2.546875q0.515625 1.03125 1.359375 1.578125q0.859375 0.53125 1.921875 0.53125q0.578125 0 1.109375 -0.15625q0.53125 -0.171875 0.96875 -0.484375q0.453125 -0.3125 0.75 -0.765625q0.3125 -0.46875 0.4375 -1.078125l1.40625 0q-0.15625 0.890625 -0.578125 1.609375q-0.421875 0.703125 -1.046875 1.1875q-0.625 0.484375 -1.40625 0.75q-0.765625 0.25 -1.640625 0.25q-1.484375 0 -2.65625 -0.71875q-1.15625 -0.734375 -1.828125 -2.078125q-0.65625 -1.34375 -0.65625 -3.171875q0 -1.84375 0.65625 -3.1875q0.671875 -1.34375 1.828125 -2.0625q1.171875 -0.734375 2.65625 -0.734375q0.875 0 1.640625 0.265625q0.78125 0.25 1.40625 0.75q0.625 0.484375 1.046875 1.1875q0.421875 0.703125 0.578125 1.59375zm5.6362305 8.1875q-1.171875 0 -2.0625 -0.5625q-0.890625 -0.5625 -1.390625 -1.578125q-0.5 -1.015625 -0.5 -2.359375q0 -1.375 0.5 -2.390625q0.5 -1.015625 1.390625 -1.578125q0.890625 -0.5625 2.0625 -0.5625q1.1875 0 2.078125 0.5625q0.890625 0.5625 1.390625 1.578125q0.5 1.015625 0.5 2.390625q0 1.34375 -0.5 2.359375q-0.5 1.015625 -1.390625 1.578125q-0.890625 0.5625 -2.078125 0.5625zm0 -1.203125q0.90625 0 1.484375 -0.453125q0.578125 -0.46875 0.859375 -1.21875q0.28125 -0.75 0.28125 -1.625q0 -0.875 -0.28125 -1.625q-0.28125 -0.765625 -0.859375 -1.234375q-0.578125 -0.46875 -1.484375 -0.46875q-0.890625 0 -1.46875 0.46875q-0.578125 0.46875 -0.859375 1.234375q-0.28125 0.75 -0.28125 1.625q0 0.875 0.28125 1.625q0.28125 0.75 0.859375 1.21875q0.578125 0.453125 1.46875 0.453125zm8.576599 1.21875q-0.828125 0 -1.515625 -0.3125q-0.671875 -0.3125 -1.078125 -0.90625q-0.390625 -0.609375 -0.390625 -1.46875q0 -0.75 0.296875 -1.21875q0.296875 -0.46875 0.78125 -0.734375q0.5 -0.265625 1.09375 -0.390625q0.609375 -0.140625 1.21875 -0.21875q0.796875 -0.09375 1.296875 -0.140625q0.5 -0.0625 0.71875 -0.1875q0.234375 -0.140625 0.234375 -0.46875l0 -0.046875q0 -0.84375 -0.453125 -1.296875q-0.453125 -0.46875 -1.390625 -0.46875q-0.953125 0 -1.5 0.421875q-0.546875 0.421875 -0.765625 0.890625l-1.28125 -0.453125q0.34375 -0.796875 0.90625 -1.234375q0.578125 -0.453125 1.25 -0.625q0.6875 -0.1875 1.34375 -0.1875q0.421875 0 0.96875 0.109375q0.546875 0.09375 1.0625 0.40625q0.515625 0.296875 0.859375 0.921875q0.34375 0.609375 0.34375 1.65625l0 5.75l-1.34375 0l0 -1.1875l-0.0625 0q-0.140625 0.296875 -0.46875 0.625q-0.3125 0.3125 -0.84375 0.546875q-0.515625 0.21875 -1.28125 0.21875zm0.203125 -1.203125q0.796875 0 1.34375 -0.3125q0.546875 -0.3125 0.828125 -0.796875q0.28125 -0.5 0.28125 -1.046875l0 -1.234375q-0.078125 0.109375 -0.375 0.1875q-0.28125 0.078125 -0.65625 0.140625q-0.375 0.0625 -0.71875 0.109375q-0.34375 0.03125 -0.5625 0.0625q-0.53125 0.078125 -0.984375 0.234375q-0.453125 0.140625 -0.734375 0.4375q-0.265625 0.296875 -0.265625 0.8125q0 0.703125 0.515625 1.0625q0.53125 0.34375 1.328125 0.34375zm10.038239 -7.734375l0 1.140625l-4.515625 0l0 -1.140625l4.515625 0zm-3.203125 -2.078125l1.34375 0l0 8.3125q0 0.5625 0.171875 0.84375q0.171875 0.28125 0.421875 0.375q0.265625 0.09375 0.5625 0.09375q0.234375 0 0.375 -0.015625q0.140625 -0.03125 0.21875 -0.046875l0.28125 1.203125q-0.140625 0.046875 -0.390625 0.09375q-0.234375 0.0625 -0.609375 0.0625q-0.578125 0 -1.125 -0.234375q-0.53125 -0.25 -0.890625 -0.75q-0.359375 -0.5 -0.359375 -1.265625l0 -8.671875z" fill-rule="nonzero"/><path fill="#b6d7a8" d="m186.41995 145.9672l124.66141 0l0 60.472443l-124.66141 0z" fill-rule="evenodd"/><path fill="#000000" d="m226.84187 182.06342l-3.59375 0l0 -11.640625l3.75 0q1.703125 0 2.90625 0.703125q1.203125 0.6875 1.84375 2.0q0.640625 1.296875 0.640625 3.09375q0 1.828125 -0.65625 3.140625q-0.640625 1.296875 -1.890625 2.0q-1.234375 0.703125 -3.0 0.703125zm-2.1875 -1.25l2.09375 0q1.453125 0 2.390625 -0.546875q0.953125 -0.5625 1.421875 -1.59375q0.46875 -1.03125 0.46875 -2.453125q0 -1.40625 -0.46875 -2.421875q-0.453125 -1.03125 -1.375 -1.578125q-0.90625 -0.546875 -2.28125 -0.546875l-2.25 0l0 9.140625zm9.921738 1.25l0 -8.734375l1.328125 0l0 8.734375l-1.328125 0zm0.671875 -10.1875q-0.390625 0 -0.671875 -0.265625q-0.28125 -0.265625 -0.28125 -0.640625q0 -0.375 0.28125 -0.640625q0.28125 -0.265625 0.671875 -0.265625q0.390625 0 0.671875 0.265625q0.28125 0.265625 0.28125 0.640625q0 0.375 -0.28125 0.640625q-0.28125 0.265625 -0.671875 0.265625zm6.998535 1.453125l0 1.140625l-4.703125 0l0 -1.140625l4.703125 0zm-3.296875 8.734375l0 -9.9375q0 -0.75 0.34375 -1.25q0.359375 -0.5 0.921875 -0.75q0.5625 -0.25 1.1875 -0.25q0.5 0 0.8125 0.09375q0.3125 0.078125 0.46875 0.140625l-0.390625 1.15625q-0.09375 -0.03125 -0.28125 -0.078125q-0.171875 -0.0625 -0.46875 -0.0625q-0.65625 0 -0.953125 0.34375q-0.296875 0.328125 -0.296875 0.984375l0 9.609375l-1.34375 0zm9.069534 -8.734375l0 1.140625l-4.703125 0l0 -1.140625l4.703125 0zm-3.296875 8.734375l0 -9.9375q0 -0.75 0.34375 -1.25q0.359375 -0.5 0.921875 -0.75q0.5625 -0.25 1.1875 -0.25q0.5 0 0.8125 0.09375q0.3125 0.078125 0.46875 0.140625l-0.390625 1.15625q-0.09375 -0.03125 -0.28125 -0.078125q-0.171875 -0.0625 -0.46875 -0.0625q-0.65625 0 -0.953125 0.34375q-0.296875 0.328125 -0.296875 0.984375l0 9.609375l-1.34375 0zm10.69455 -3.5625l0 -5.171875l1.3281097 0l0 8.734375l-1.3281097 0l0 -1.484375l-0.09375 0q-0.3125 0.671875 -0.96875 1.140625q-0.640625 0.453125 -1.625 0.453125q-0.8125 0 -1.453125 -0.359375q-0.640625 -0.359375 -1.0000153 -1.078125q-0.359375 -0.734375 -0.359375 -1.859375l0 -5.546875l1.3281403 0l0 5.46875q0 0.953125 0.53125 1.515625q0.546875 0.5625 1.390625 0.5625q0.5 0 1.015625 -0.25q0.515625 -0.25 0.875 -0.78125q0.359375 -0.53125 0.359375 -1.34375zm9.967209 -3.203125l-1.203125 0.328125q-0.109375 -0.296875 -0.328125 -0.578125q-0.21875 -0.296875 -0.59375 -0.484375q-0.375 -0.1875 -0.96875 -0.1875q-0.796875 0 -1.328125 0.375q-0.53125 0.359375 -0.53125 0.921875q0 0.5 0.359375 0.796875q0.375 0.28125 1.140625 0.484375l1.296875 0.3125q1.171875 0.28125 1.734375 0.875q0.578125 0.578125 0.578125 1.484375q0 0.75 -0.4375 1.34375q-0.421875 0.59375 -1.1875 0.9375q-0.765625 0.34375 -1.78125 0.34375q-1.328125 0 -2.203125 -0.578125q-0.875 -0.59375 -1.109375 -1.703125l1.265625 -0.3125q0.1875 0.703125 0.6875 1.0625q0.515625 0.34375 1.34375 0.34375q0.9375 0 1.484375 -0.390625q0.5625 -0.40625 0.5625 -0.96875q0 -0.453125 -0.328125 -0.765625q-0.3125 -0.3125 -0.96875 -0.46875l-1.453125 -0.34375q-1.203125 -0.28125 -1.765625 -0.875q-0.5625 -0.609375 -0.5625 -1.5q0 -0.75 0.421875 -1.3125q0.421875 -0.5625 1.140625 -0.890625q0.71875 -0.328125 1.640625 -0.328125q1.296875 0 2.03125 0.578125q0.75 0.5625 1.0625 1.5zm5.847931 6.953125q-1.265625 0 -2.1875 -0.5625q-0.90625 -0.5625 -1.40625 -1.5625q-0.484375 -1.015625 -0.484375 -2.359375q0 -1.34375 0.484375 -2.359375q0.5 -1.03125 1.375 -1.609375q0.890625 -0.578125 2.078125 -0.578125q0.6875 0 1.34375 0.234375q0.671875 0.21875 1.21875 0.734375q0.546875 0.5 0.859375 1.34375q0.328125 0.828125 0.328125 2.046875l0 0.578125l-6.734375 0l0 -1.15625l5.375 0q0 -0.75 -0.296875 -1.328125q-0.296875 -0.578125 -0.828125 -0.90625q-0.53125 -0.34375 -1.265625 -0.34375q-0.796875 0 -1.390625 0.40625q-0.578125 0.390625 -0.890625 1.03125q-0.3125 0.625 -0.3125 1.34375l0 0.765625q0 0.984375 0.34375 1.671875q0.34375 0.6875 0.953125 1.046875q0.625 0.359375 1.4375 0.359375q0.53125 0 0.953125 -0.15625q0.421875 -0.15625 0.734375 -0.453125q0.3125 -0.3125 0.484375 -0.765625l1.296875 0.375q-0.203125 0.65625 -0.6875 1.15625q-0.484375 0.484375 -1.203125 0.765625q-0.703125 0.28125 -1.578125 0.28125z" fill-rule="nonzero"/><defs><linearGradient id="p.1" gradientUnits="userSpaceOnUse" gradientTransform="matrix(7.77643249268839 0.0 0.0 7.77643249268839 0.0 0.0)" spreadMethod="pad" x1="40.00309462235843" y1="18.76938510742889" x2="40.00306825390559" y2="26.545817600072574"><stop offset="0.0" stop-color="#ea9999"/><stop offset="1.0" stop-color="#fce5cd"/></linearGradient></defs><path fill="url(#p.1)" d="m311.08136 145.95932l128.28348 0l0 60.472443l-128.28348 0z" fill-rule="evenodd"/><path fill="#000000" d="m339.79602 173.32117q-0.09375 -0.859375 -0.828125 -1.328125q-0.71875 -0.484375 -1.78125 -0.484375q-0.765625 0 -1.34375 0.25q-0.578125 0.25 -0.90625 0.6875q-0.3125 0.4375 -0.3125 1.0q0 0.46875 0.21875 0.796875q0.234375 0.328125 0.578125 0.546875q0.359375 0.21875 0.734375 0.359375q0.390625 0.140625 0.71875 0.21875l1.171875 0.328125q0.46875 0.109375 1.015625 0.328125q0.5625 0.203125 1.078125 0.5625q0.515625 0.359375 0.84375 0.921875q0.34375 0.5625 0.34375 1.390625q0 0.9375 -0.5 1.703125q-0.484375 0.765625 -1.421875 1.21875q-0.9375 0.4375 -2.28125 0.4375q-1.25 0 -2.171875 -0.40625q-0.90625 -0.40625 -1.421875 -1.125q-0.515625 -0.71875 -0.59375 -1.671875l1.453125 0q0.0625 0.65625 0.453125 1.09375q0.390625 0.421875 0.984375 0.640625q0.59375 0.203125 1.296875 0.203125q0.796875 0 1.4375 -0.265625q0.65625 -0.265625 1.03125 -0.734375q0.375 -0.484375 0.375 -1.125q0 -0.578125 -0.328125 -0.9375q-0.328125 -0.359375 -0.859375 -0.578125q-0.515625 -0.234375 -1.140625 -0.40625l-1.421875 -0.40625q-1.375 -0.40625 -2.171875 -1.125q-0.78125 -0.734375 -0.78125 -1.90625q0 -0.96875 0.53125 -1.703125q0.53125 -0.734375 1.421875 -1.140625q0.90625 -0.40625 2.015625 -0.40625q1.125 0 2.0 0.40625q0.875 0.390625 1.390625 1.09375q0.515625 0.6875 0.546875 1.5625l-1.375 0zm9.173187 5.171875l0 -5.171875l1.328125 0l0 8.734375l-1.328125 0l0 -1.484375l-0.09375 0q-0.3125 0.671875 -0.96875 1.140625q-0.640625 0.453125 -1.625 0.453125q-0.8125 0 -1.453125 -0.359375q-0.640625 -0.359375 -1.0 -1.078125q-0.359375 -0.734375 -0.359375 -1.859375l0 -5.546875l1.328125 0l0 5.46875q0 0.953125 0.53125 1.515625q0.546875 0.5625 1.390625 0.5625q0.5 0 1.015625 -0.25q0.515625 -0.25 0.875 -0.78125q0.359375 -0.53125 0.359375 -1.34375zm3.9672241 3.5625l0 -11.640625l1.34375 0l0 4.296875l0.109375 0q0.15625 -0.21875 0.421875 -0.578125q0.265625 -0.359375 0.75 -0.640625q0.5 -0.28125 1.359375 -0.28125q1.09375 0 1.9375 0.5625q0.84375 0.546875 1.3125 1.5625q0.46875 1.0 0.46875 2.375q0 1.390625 -0.46875 2.40625q-0.46875 1.015625 -1.3125 1.578125q-0.828125 0.546875 -1.921875 0.546875q-0.84375 0 -1.34375 -0.28125q-0.5 -0.28125 -0.78125 -0.640625q-0.265625 -0.375 -0.421875 -0.609375l-0.15625 0l0 1.34375l-1.296875 0zm1.328125 -4.359375q0 0.984375 0.28125 1.734375q0.296875 0.75 0.84375 1.1875q0.5625 0.421875 1.375 0.421875q0.828125 0 1.390625 -0.453125q0.578125 -0.453125 0.859375 -1.203125q0.28125 -0.765625 0.28125 -1.6875q0 -0.921875 -0.28125 -1.65625q-0.28125 -0.75 -0.84375 -1.1875q-0.5625 -0.4375 -1.40625 -0.4375q-0.828125 0 -1.390625 0.421875q-0.546875 0.40625 -0.828125 1.140625q-0.28125 0.734375 -0.28125 1.71875zm14.603577 -2.40625l-1.203125 0.328125q-0.109375 -0.296875 -0.328125 -0.578125q-0.21875 -0.296875 -0.59375 -0.484375q-0.375 -0.1875 -0.96875 -0.1875q-0.796875 0 -1.328125 0.375q-0.53125 0.359375 -0.53125 0.921875q0 0.5 0.359375 0.796875q0.375 0.28125 1.140625 0.484375l1.296875 0.3125q1.171875 0.28125 1.734375 0.875q0.578125 0.578125 0.578125 1.484375q0 0.75 -0.4375 1.34375q-0.421875 0.59375 -1.1875 0.9375q-0.765625 0.34375 -1.78125 0.34375q-1.328125 0 -2.203125 -0.578125q-0.875 -0.59375 -1.109375 -1.703125l1.265625 -0.3125q0.1875 0.703125 0.6875 1.0625q0.515625 0.34375 1.34375 0.34375q0.9375 0 1.484375 -0.390625q0.5625 -0.40625 0.5625 -0.96875q0 -0.453125 -0.328125 -0.765625q-0.3125 -0.3125 -0.96875 -0.46875l-1.453125 -0.34375q-1.203125 -0.28125 -1.765625 -0.875q-0.5625 -0.609375 -0.5625 -1.5q0 -0.75 0.421875 -1.3125q0.421875 -0.5625 1.140625 -0.890625q0.71875 -0.328125 1.640625 -0.328125q1.296875 0 2.03125 0.578125q0.75 0.5625 1.0625 1.5zm7.6916504 3.203125l0 -5.171875l1.328125 0l0 8.734375l-1.328125 0l0 -1.484375l-0.09375 0q-0.3125 0.671875 -0.96875 1.140625q-0.640625 0.453125 -1.625 0.453125q-0.8125 0 -1.453125 -0.359375q-0.640625 -0.359375 -1.0 -1.078125q-0.359375 -0.734375 -0.359375 -1.859375l0 -5.546875l1.328125 0l0 5.46875q0 0.953125 0.53125 1.515625q0.546875 0.5625 1.390625 0.5625q0.5 0 1.015625 -0.25q0.515625 -0.25 0.875 -0.78125q0.359375 -0.53125 0.359375 -1.34375zm3.7953491 3.5625l0 -8.734375l1.28125 0l0 1.328125l0.09375 0q0.25 -0.65625 0.875 -1.046875q0.625 -0.40625 1.40625 -0.40625q0.140625 0 0.359375 0q0.234375 0 0.34375 0.015625l0 1.359375q-0.078125 -0.015625 -0.3125 -0.046875q-0.234375 -0.03125 -0.515625 -0.03125q-0.625 0 -1.125 0.265625q-0.5 0.25 -0.796875 0.71875q-0.28125 0.46875 -0.28125 1.0625l0 5.515625l-1.328125 0zm10.374939 -8.734375l0 1.140625l-4.703125 0l0 -1.140625l4.703125 0zm-3.296875 8.734375l0 -9.9375q0 -0.75 0.34375 -1.25q0.359375 -0.5 0.921875 -0.75q0.5625 -0.25 1.1875 -0.25q0.5 0 0.8125 0.09375q0.3125 0.078125 0.46875 0.140625l-0.390625 1.15625q-0.09375 -0.03125 -0.28125 -0.078125q-0.171875 -0.0625 -0.46875 -0.0625q-0.65625 0 -0.953125 0.34375q-0.296875 0.328125 -0.296875 0.984375l0 9.609375l-1.34375 0zm7.5070496 0.203125q-0.828125 0 -1.515625 -0.3125q-0.671875 -0.3125 -1.078125 -0.90625q-0.390625 -0.609375 -0.390625 -1.46875q0 -0.75 0.296875 -1.21875q0.296875 -0.46875 0.78125 -0.734375q0.5 -0.265625 1.09375 -0.390625q0.609375 -0.140625 1.21875 -0.21875q0.796875 -0.09375 1.296875 -0.140625q0.5 -0.0625 0.71875 -0.1875q0.234375 -0.140625 0.234375 -0.46875l0 -0.046875q0 -0.84375 -0.453125 -1.296875q-0.453125 -0.46875 -1.390625 -0.46875q-0.953125 0 -1.5 0.421875q-0.546875 0.421875 -0.765625 0.890625l-1.28125 -0.453125q0.34375 -0.796875 0.90625 -1.234375q0.578125 -0.453125 1.25 -0.625q0.6875 -0.1875 1.34375 -0.1875q0.421875 0 0.96875 0.109375q0.546875 0.09375 1.0625 0.40625q0.515625 0.296875 0.859375 0.921875q0.34375 0.609375 0.34375 1.65625l0 5.75l-1.34375 0l0 -1.1875l-0.0625 0q-0.140625 0.296875 -0.46875 0.625q-0.3125 0.3125 -0.84375 0.546875q-0.515625 0.21875 -1.28125 0.21875zm0.203125 -1.203125q0.796875 0 1.34375 -0.3125q0.546875 -0.3125 0.828125 -0.796875q0.28125 -0.5 0.28125 -1.046875l0 -1.234375q-0.078125 0.109375 -0.375 0.1875q-0.28125 0.078125 -0.65625 0.140625q-0.375 0.0625 -0.71875 0.109375q-0.34375 0.03125 -0.5625 0.0625q-0.53125 0.078125 -0.984375 0.234375q-0.453125 0.140625 -0.734375 0.4375q-0.265625 0.296875 -0.265625 0.8125q0 0.703125 0.515625 1.0625q0.53125 0.34375 1.328125 0.34375zm9.788239 1.1875q-1.21875 0 -2.109375 -0.578125q-0.890625 -0.59375 -1.375 -1.609375q-0.46875 -1.015625 -0.46875 -2.3125q0 -1.328125 0.484375 -2.34375q0.5 -1.03125 1.375 -1.609375q0.890625 -0.578125 2.078125 -0.578125q0.921875 0 1.65625 0.34375q0.734375 0.34375 1.203125 0.953125q0.484375 0.609375 0.59375 1.4375l-1.34375 0q-0.15625 -0.59375 -0.6875 -1.0625q-0.515625 -0.46875 -1.40625 -0.46875q-0.78125 0 -1.375 0.40625q-0.578125 0.40625 -0.90625 1.140625q-0.328125 0.734375 -0.328125 1.734375q0 1.0 0.3125 1.75q0.328125 0.75 0.921875 1.171875q0.59375 0.421875 1.375 0.421875q0.53125 0 0.953125 -0.1875q0.421875 -0.1875 0.71875 -0.515625q0.296875 -0.34375 0.421875 -0.828125l1.34375 0q-0.109375 0.78125 -0.5625 1.390625q-0.4375 0.609375 -1.171875 0.984375q-0.734375 0.359375 -1.703125 0.359375zm9.056732 0q-1.265625 0 -2.1875 -0.5625q-0.90625 -0.5625 -1.40625 -1.5625q-0.484375 -1.015625 -0.484375 -2.359375q0 -1.34375 0.484375 -2.359375q0.5 -1.03125 1.375 -1.609375q0.890625 -0.578125 2.078125 -0.578125q0.6875 0 1.34375 0.234375q0.671875 0.21875 1.21875 0.734375q0.546875 0.5 0.859375 1.34375q0.328125 0.828125 0.328125 2.046875l0 0.578125l-6.734375 0l0 -1.15625l5.375 0q0 -0.75 -0.296875 -1.328125q-0.296875 -0.578125 -0.828125 -0.90625q-0.53125 -0.34375 -1.265625 -0.34375q-0.796875 0 -1.390625 0.40625q-0.578125 0.390625 -0.890625 1.03125q-0.3125 0.625 -0.3125 1.34375l0 0.765625q0 0.984375 0.34375 1.671875q0.34375 0.6875 0.953125 1.046875q0.625 0.359375 1.4375 0.359375q0.53125 0 0.953125 -0.15625q0.421875 -0.15625 0.734375 -0.453125q0.3125 -0.3125 0.484375 -0.765625l1.296875 0.375q-0.203125 0.65625 -0.6875 1.15625q-0.484375 0.484375 -1.203125 0.765625q-0.703125 0.28125 -1.578125 0.28125z" fill-rule="nonzero"/><path fill="#cccccc" d="m4.0892386 3.6653543l755.37006 0l0 47.43307l-755.37006 0z" fill-rule="evenodd"/><path fill="#000000" d="m365.71063 24.507513q-0.09375 -0.859375 -0.828125 -1.328125q-0.71875 -0.484375 -1.78125 -0.484375q-0.765625 0 -1.34375 0.25q-0.578125 0.25 -0.90625 0.6875q-0.3125 0.4375 -0.3125 1.0q0 0.46875 0.21875 0.796875q0.234375 0.328125 0.578125 0.546875q0.359375 0.21875 0.734375 0.359375q0.390625 0.140625 0.71875 0.21875l1.171875 0.328125q0.46875 0.109375 1.015625 0.328125q0.5625 0.203125 1.078125 0.5625q0.515625 0.359375 0.84375 0.921875q0.34375 0.5625 0.34375 1.390625q0 0.9375 -0.5 1.703125q-0.484375 0.7656269 -1.421875 1.2187519q-0.9375 0.4375 -2.28125 0.4375q-1.25 0 -2.171875 -0.40625q-0.90625 -0.40625 -1.421875 -1.1250019q-0.515625 -0.71875 -0.59375 -1.671875l1.453125 0q0.0625 0.65625 0.453125 1.09375q0.390625 0.421875 0.984375 0.640625q0.59375 0.2031269 1.296875 0.2031269q0.796875 0 1.4375 -0.2656269q0.65625 -0.265625 1.03125 -0.734375q0.375 -0.484375 0.375 -1.125q0 -0.578125 -0.328125 -0.9375q-0.328125 -0.359375 -0.859375 -0.578125q-0.515625 -0.234375 -1.140625 -0.40625l-1.421875 -0.40625q-1.375 -0.40625 -2.171875 -1.125q-0.78125 -0.734375 -0.78125 -1.90625q0 -0.96875 0.53125 -1.703125q0.53125 -0.734375 1.421875 -1.140625q0.90625 -0.40625 2.015625 -0.40625q1.125 0 2.0 0.40625q0.875 0.390625 1.390625 1.09375q0.515625 0.6875 0.546875 1.5625l-1.375 0zm5.0012817 3.484375l0 5.250002l-1.328125 0l0 -11.640627l1.328125 0l0 4.28125l0.125 0q0.296875 -0.6875 0.90625 -1.078125q0.625 -0.40625 1.65625 -0.40625q0.890625 0 1.5625 0.359375q0.671875 0.359375 1.046875 1.09375q0.375 0.71875 0.375 1.84375l0 5.546877l-1.34375 0l0 -5.453127q0 -1.046875 -0.546875 -1.609375q-0.53125 -0.578125 -1.484375 -0.578125q-0.65625 0 -1.171875 0.28125q-0.515625 0.28125 -0.828125 0.8125q-0.296875 0.53125 -0.296875 1.296875zm11.782593 5.437502q-1.265625 0 -2.1875 -0.5625q-0.90625 -0.5625 -1.40625 -1.5625019q-0.484375 -1.015625 -0.484375 -2.359375q0 -1.34375 0.484375 -2.359375q0.5 -1.03125 1.375 -1.609375q0.890625 -0.578125 2.078125 -0.578125q0.6875 0 1.34375 0.234375q0.671875 0.21875 1.21875 0.734375q0.546875 0.5 0.859375 1.34375q0.328125 0.828125 0.328125 2.046875l0 0.578125l-6.734375 0l0 -1.15625l5.375 0q0 -0.75 -0.296875 -1.328125q-0.296875 -0.578125 -0.828125 -0.90625q-0.53125 -0.34375 -1.265625 -0.34375q-0.796875 0 -1.390625 0.40625q-0.578125 0.390625 -0.890625 1.03125q-0.3125 0.625 -0.3125 1.34375l0 0.765625q0 0.984375 0.34375 1.671875q0.34375 0.6875 0.953125 1.046875q0.625 0.3593769 1.4375 0.3593769q0.53125 0 0.953125 -0.15625q0.421875 -0.1562519 0.734375 -0.4531269q0.3125 -0.3125 0.484375 -0.765625l1.296875 0.375q-0.203125 0.65625 -0.6875 1.1562519q-0.484375 0.484375 -1.203125 0.765625q-0.703125 0.28125 -1.578125 0.28125zm9.318054 0q-1.265625 0 -2.1875 -0.5625q-0.90625 -0.5625 -1.40625 -1.5625019q-0.484375 -1.015625 -0.484375 -2.359375q0 -1.34375 0.484375 -2.359375q0.5 -1.03125 1.375 -1.609375q0.890625 -0.578125 2.078125 -0.578125q0.6875 0 1.34375 0.234375q0.671875 0.21875 1.21875 0.734375q0.546875 0.5 0.859375 1.34375q0.328125 0.828125 0.328125 2.046875l0 0.578125l-6.734375 0l0 -1.15625l5.375 0q0 -0.75 -0.296875 -1.328125q-0.296875 -0.578125 -0.828125 -0.90625q-0.53125 -0.34375 -1.265625 -0.34375q-0.796875 0 -1.390625 0.40625q-0.578125 0.390625 -0.890625 1.03125q-0.3125 0.625 -0.3125 1.34375l0 0.765625q0 0.984375 0.34375 1.671875q0.34375 0.6875 0.953125 1.046875q0.625 0.3593769 1.4375 0.3593769q0.53125 0 0.953125 -0.15625q0.421875 -0.1562519 0.734375 -0.4531269q0.3125 -0.3125 0.484375 -0.765625l1.296875 0.375q-0.203125 0.65625 -0.6875 1.1562519q-0.484375 0.484375 -1.203125 0.765625q-0.703125 0.28125 -1.578125 0.28125zm6.989929 -5.437502l0 5.250002l-1.328125 0l0 -8.734377l1.28125 0l0 1.375l0.125 0q0.296875 -0.671875 0.921875 -1.078125q0.625 -0.40625 1.625 -0.40625q0.875 0 1.53125 0.359375q0.671875 0.359375 1.046875 1.09375q0.375 0.734375 0.375 1.84375l0 5.546877l-1.34375 0l0 -5.453127q0 -1.03125 -0.53125 -1.609375q-0.53125 -0.578125 -1.46875 -0.578125q-0.640625 0 -1.15625 0.28125q-0.5 0.28125 -0.796875 0.8125q-0.28125 0.53125 -0.28125 1.296875z" fill-rule="nonzero"/><defs><linearGradient id="p.2" gradientUnits="userSpaceOnUse" gradientTransform="matrix(10.387789862731076 0.0 0.0 10.387789862731076 0.0 0.0)" spreadMethod="pad" x1="42.29425487295028" y1="9.485507082485283" x2="42.294219341379744" y2="19.873296945155595"><stop offset="0.0" stop-color="#9fc5e8"/><stop offset="1.0" stop-color="#ffffff"/></linearGradient></defs><path fill="url(#p.2)" d="m439.34384 98.53412l182.33072 0l0 107.90552l-182.33072 0z" fill-rule="evenodd"/><path fill="#000000" d="m481.6731 147.95625l0 -1.25l8.734375 0l0 1.25l-3.65625 0l0 10.390625l-1.40625 0l0 -10.390625l-3.671875 0zm9.832275 10.390625l0 -8.734375l1.28125 0l0 1.328125l0.09375 0q0.25 -0.65625 0.875 -1.046875q0.625 -0.40625 1.40625 -0.40625q0.140625 0 0.359375 0q0.234375 0 0.34375 0.015625l0 1.359375q-0.078125 -0.015625 -0.3125 -0.046875q-0.234375 -0.03125 -0.515625 -0.03125q-0.625 0 -1.125 0.265625q-0.5 0.25 -0.796875 0.71875q-0.28125 0.46875 -0.28125 1.0625l0 5.515625l-1.328125 0zm8.516998 0.203125q-0.828125 0 -1.515625 -0.3125q-0.671875 -0.3125 -1.078125 -0.90625q-0.390625 -0.609375 -0.390625 -1.46875q0 -0.75 0.296875 -1.21875q0.296875 -0.46875 0.78125 -0.734375q0.5 -0.265625 1.09375 -0.390625q0.609375 -0.140625 1.21875 -0.21875q0.796875 -0.09375 1.296875 -0.140625q0.5 -0.0625 0.71875 -0.1875q0.234375 -0.140625 0.234375 -0.46875l0 -0.046875q0 -0.84375 -0.453125 -1.296875q-0.453125 -0.46875 -1.390625 -0.46875q-0.953125 0 -1.5 0.421875q-0.546875 0.421875 -0.765625 0.890625l-1.28125 -0.453125q0.34375 -0.796875 0.90625 -1.234375q0.578125 -0.453125 1.25 -0.625q0.6875 -0.1875 1.34375 -0.1875q0.421875 0 0.96875 0.109375q0.546875 0.09375 1.0625 0.40625q0.515625 0.296875 0.859375 0.921875q0.34375 0.609375 0.34375 1.65625l0 5.75l-1.34375 0l0 -1.1875l-0.0625 0q-0.140625 0.296875 -0.46875 0.625q-0.3125 0.3125 -0.84375 0.546875q-0.515625 0.21875 -1.28125 0.21875zm0.203125 -1.203125q0.796875 0 1.34375 -0.3125q0.546875 -0.3125 0.828125 -0.796875q0.28125 -0.5 0.28125 -1.046875l0 -1.234375q-0.078125 0.109375 -0.375 0.1875q-0.28125 0.078125 -0.65625 0.140625q-0.375 0.0625 -0.71875 0.109375q-0.34375 0.03125 -0.5625 0.0625q-0.53125 0.078125 -0.984375 0.234375q-0.453125 0.140625 -0.734375 0.4375q-0.265625 0.296875 -0.265625 0.8125q0 0.703125 0.515625 1.0625q0.53125 0.34375 1.328125 0.34375zm7.5851135 -4.25l0 5.25l-1.328125 0l0 -8.734375l1.28125 0l0 1.375l0.125 0q0.296875 -0.671875 0.921875 -1.078125q0.625 -0.40625 1.625 -0.40625q0.875 0 1.53125 0.359375q0.671875 0.359375 1.046875 1.09375q0.375 0.734375 0.375 1.84375l0 5.546875l-1.34375 0l0 -5.453125q0 -1.03125 -0.53125 -1.609375q-0.53125 -0.578125 -1.46875 -0.578125q-0.640625 0 -1.15625 0.28125q-0.5 0.28125 -0.796875 0.8125q-0.28125 0.53125 -0.28125 1.296875zm14.207275 -1.515625l-1.203125 0.328125q-0.109375 -0.296875 -0.328125 -0.578125q-0.21875 -0.296875 -0.59375 -0.484375q-0.375 -0.1875 -0.96875 -0.1875q-0.796875 0 -1.328125 0.375q-0.53125 0.359375 -0.53125 0.921875q0 0.5 0.359375 0.796875q0.375 0.28125 1.140625 0.484375l1.296875 0.3125q1.171875 0.28125 1.734375 0.875q0.578125 0.578125 0.578125 1.484375q0 0.75 -0.4375 1.34375q-0.421875 0.59375 -1.1875 0.9375q-0.765625 0.34375 -1.78125 0.34375q-1.328125 0 -2.203125 -0.578125q-0.875 -0.59375 -1.109375 -1.703125l1.265625 -0.3125q0.1875 0.703125 0.6875 1.0625q0.515625 0.34375 1.34375 0.34375q0.9375 0 1.484375 -0.390625q0.5625 -0.40625 0.5625 -0.96875q0 -0.453125 -0.328125 -0.765625q-0.3125 -0.3125 -0.96875 -0.46875l-1.453125 -0.34375q-1.203125 -0.28125 -1.765625 -0.875q-0.5625 -0.609375 -0.5625 -1.5q0 -0.75 0.421875 -1.3125q0.421875 -0.5625 1.140625 -0.890625q0.71875 -0.328125 1.640625 -0.328125q1.296875 0 2.03125 0.578125q0.75 0.5625 1.0625 1.5zm2.1916504 6.765625l0 -8.734375l1.28125 0l0 1.375l0.125 0q0.265625 -0.703125 0.875 -1.09375q0.609375 -0.390625 1.46875 -0.390625q0.859375 0 1.4375 0.390625q0.578125 0.390625 0.890625 1.09375l0.09375 0q0.34375 -0.6875 1.0 -1.078125q0.671875 -0.40625 1.609375 -0.40625q1.171875 0 1.921875 0.734375q0.75 0.734375 0.75 2.265625l0 5.84375l-1.34375 0l0 -5.84375q0 -0.96875 -0.53125 -1.375q-0.53125 -0.421875 -1.25 -0.421875q-0.921875 0 -1.421875 0.5625q-0.5 0.546875 -0.5 1.390625l0 5.6875l-1.375 0l0 -5.984375q0 -0.734375 -0.484375 -1.1875q-0.46875 -0.46875 -1.234375 -0.46875q-0.53125 0 -0.984375 0.28125q-0.4375 0.28125 -0.71875 0.78125q-0.28125 0.484375 -0.28125 1.125l0 5.453125l-1.328125 0zm13.908936 0l0 -8.734375l1.328125 0l0 8.734375l-1.328125 0zm0.671875 -10.1875q-0.390625 0 -0.671875 -0.265625q-0.28125 -0.265625 -0.28125 -0.640625q0 -0.375 0.28125 -0.640625q0.28125 -0.265625 0.671875 -0.265625q0.390625 0 0.671875 0.265625q0.28125 0.265625 0.28125 0.640625q0 0.375 -0.28125 0.640625q-0.28125 0.265625 -0.671875 0.265625zm9.29541 3.421875l-1.203125 0.328125q-0.109375 -0.296875 -0.328125 -0.578125q-0.21875 -0.296875 -0.59375 -0.484375q-0.375 -0.1875 -0.96875 -0.1875q-0.796875 0 -1.328125 0.375q-0.53125 0.359375 -0.53125 0.921875q0 0.5 0.359375 0.796875q0.375 0.28125 1.140625 0.484375l1.296875 0.3125q1.171875 0.28125 1.734375 0.875q0.578125 0.578125 0.578125 1.484375q0 0.75 -0.4375 1.34375q-0.421875 0.59375 -1.1875 0.9375q-0.765625 0.34375 -1.78125 0.34375q-1.328125 0 -2.203125 -0.578125q-0.875 -0.59375 -1.109375 -1.703125l1.265625 -0.3125q0.1875 0.703125 0.6875 1.0625q0.515625 0.34375 1.34375 0.34375q0.9375 0 1.484375 -0.390625q0.5625 -0.40625 0.5625 -0.96875q0 -0.453125 -0.328125 -0.765625q-0.3125 -0.3125 -0.96875 -0.46875l-1.453125 -0.34375q-1.203125 -0.28125 -1.765625 -0.875q-0.5625 -0.609375 -0.5625 -1.5q0 -0.75 0.421875 -1.3125q0.421875 -0.5625 1.140625 -0.890625q0.71875 -0.328125 1.640625 -0.328125q1.296875 0 2.03125 0.578125q0.75 0.5625 1.0625 1.5zm8.363586 0l-1.203125 0.328125q-0.109375 -0.296875 -0.328125 -0.578125q-0.21875 -0.296875 -0.59375 -0.484375q-0.375 -0.1875 -0.96875 -0.1875q-0.796875 0 -1.328125 0.375q-0.53125 0.359375 -0.53125 0.921875q0 0.5 0.359375 0.796875q0.375 0.28125 1.140625 0.484375l1.296875 0.3125q1.171875 0.28125 1.734375 0.875q0.578125 0.578125 0.578125 1.484375q0 0.75 -0.4375 1.34375q-0.421875 0.59375 -1.1875 0.9375q-0.765625 0.34375 -1.78125 0.34375q-1.328125 0 -2.203125 -0.578125q-0.875 -0.59375 -1.109375 -1.703125l1.265625 -0.3125q0.1875 0.703125 0.6875 1.0625q0.515625 0.34375 1.34375 0.34375q0.9375 0 1.484375 -0.390625q0.5625 -0.40625 0.5625 -0.96875q0 -0.453125 -0.328125 -0.765625q-0.3125 -0.3125 -0.96875 -0.46875l-1.453125 -0.34375q-1.203125 -0.28125 -1.765625 -0.875q-0.5625 -0.609375 -0.5625 -1.5q0 -0.75 0.421875 -1.3125q0.421875 -0.5625 1.140625 -0.890625q0.71875 -0.328125 1.640625 -0.328125q1.296875 0 2.03125 0.578125q0.75 0.5625 1.0625 1.5zm2.1916504 6.765625l0 -8.734375l1.328125 0l0 8.734375l-1.328125 0zm0.671875 -10.1875q-0.390625 0 -0.671875 -0.265625q-0.28125 -0.265625 -0.28125 -0.640625q0 -0.375 0.28125 -0.640625q0.28125 -0.265625 0.671875 -0.265625q0.390625 0 0.671875 0.265625q0.28125 0.265625 0.28125 0.640625q0 0.375 -0.28125 0.640625q-0.28125 0.265625 -0.671875 0.265625zm6.654785 10.375q-1.171875 0 -2.0625 -0.5625q-0.890625 -0.5625 -1.390625 -1.578125q-0.5 -1.015625 -0.5 -2.359375q0 -1.375 0.5 -2.390625q0.5 -1.015625 1.390625 -1.578125q0.890625 -0.5625 2.0625 -0.5625q1.1875 0 2.078125 0.5625q0.890625 0.5625 1.390625 1.578125q0.5 1.015625 0.5 2.390625q0 1.34375 -0.5 2.359375q-0.5 1.015625 -1.390625 1.578125q-0.890625 0.5625 -2.078125 0.5625zm0 -1.203125q0.90625 0 1.484375 -0.453125q0.578125 -0.46875 0.859375 -1.21875q0.28125 -0.75 0.28125 -1.625q0 -0.875 -0.28125 -1.625q-0.28125 -0.765625 -0.859375 -1.234375q-0.578125 -0.46875 -1.484375 -0.46875q-0.890625 0 -1.46875 0.46875q-0.578125 0.46875 -0.859375 1.234375q-0.28125 0.75 -0.28125 1.625q0 0.875 0.28125 1.625q0.28125 0.75 0.859375 1.21875q0.578125 0.453125 1.46875 0.453125zm7.342224 -4.234375l0 5.25l-1.328125 0l0 -8.734375l1.28125 0l0 1.375l0.125 0q0.296875 -0.671875 0.921875 -1.078125q0.625 -0.40625 1.625 -0.40625q0.875 0 1.53125 0.359375q0.671875 0.359375 1.046875 1.09375q0.375 0.734375 0.375 1.84375l0 5.546875l-1.34375 0l0 -5.453125q0 -1.03125 -0.53125 -1.609375q-0.53125 -0.578125 -1.46875 -0.578125q-0.640625 0 -1.15625 0.28125q-0.5 0.28125 -0.796875 0.8125q-0.28125 0.53125 -0.28125 1.296875z" fill-rule="nonzero"/><path fill="#f9cb9c" d="m634.7769 98.53674l124.66138 0l0 107.90552l-124.66138 0z" fill-rule="evenodd"/><path fill="#000000" d="m665.162 158.3495l0 -11.640625l7.03125 0l0 1.25l-5.625 0l0 3.9375l5.25 0l0 1.25l-5.25 0l0 3.953125l5.703125 0l0 1.25l-7.109375 0zm9.396179 0l0 -8.734375l1.28125 0l0 1.375l0.125 0q0.265625 -0.703125 0.875 -1.09375q0.609375 -0.390625 1.46875 -0.390625q0.859375 0 1.4375 0.390625q0.578125 0.390625 0.890625 1.09375l0.09375 0q0.34375 -0.6875 1.0 -1.078125q0.671875 -0.40625 1.609375 -0.40625q1.171875 0 1.921875 0.734375q0.75 0.734375 0.75 2.265625l0 5.84375l-1.34375 0l0 -5.84375q0 -0.96875 -0.53125 -1.375q-0.53125 -0.421875 -1.25 -0.421875q-0.921875 0 -1.421875 0.5625q-0.5 0.546875 -0.5 1.390625l0 5.6875l-1.375 0l0 -5.984375q0 -0.734375 -0.484375 -1.1875q-0.46875 -0.46875 -1.234375 -0.46875q-0.53125 0 -0.984375 0.28125q-0.4375 0.28125 -0.71875 0.78125q-0.28125 0.484375 -0.28125 1.125l0 5.453125l-1.328125 0zm13.908936 0l0 -8.734375l1.328125 0l0 8.734375l-1.328125 0zm0.671875 -10.1875q-0.390625 0 -0.671875 -0.265625q-0.28125 -0.265625 -0.28125 -0.640625q0 -0.375 0.28125 -0.640625q0.28125 -0.265625 0.671875 -0.265625q0.390625 0 0.671875 0.265625q0.28125 0.265625 0.28125 0.640625q0 0.375 -0.28125 0.640625q-0.28125 0.265625 -0.671875 0.265625zm9.29541 3.421875l-1.203125 0.328125q-0.109375 -0.296875 -0.328125 -0.578125q-0.21875 -0.296875 -0.59375 -0.484375q-0.375 -0.1875 -0.96875 -0.1875q-0.796875 0 -1.328125 0.375q-0.53125 0.359375 -0.53125 0.921875q0 0.5 0.359375 0.796875q0.375 0.28125 1.140625 0.484375l1.296875 0.3125q1.171875 0.28125 1.734375 0.875q0.578125 0.578125 0.578125 1.484375q0 0.75 -0.4375 1.34375q-0.421875 0.59375 -1.1875 0.9375q-0.765625 0.34375 -1.78125 0.34375q-1.328125 0 -2.203125 -0.578125q-0.875 -0.59375 -1.109375 -1.703125l1.265625 -0.3125q0.1875 0.703125 0.6875 1.0625q0.515625 0.34375 1.34375 0.34375q0.9375 0 1.484375 -0.390625q0.5625 -0.40625 0.5625 -0.96875q0 -0.453125 -0.328125 -0.765625q-0.3125 -0.3125 -0.96875 -0.46875l-1.453125 -0.34375q-1.203125 -0.28125 -1.765625 -0.875q-0.5625 -0.609375 -0.5625 -1.5q0 -0.75 0.421875 -1.3125q0.421875 -0.5625 1.140625 -0.890625q0.71875 -0.328125 1.640625 -0.328125q1.296875 0 2.03125 0.578125q0.75 0.5625 1.0625 1.5zm8.363525 0l-1.203125 0.328125q-0.109375 -0.296875 -0.328125 -0.578125q-0.21875 -0.296875 -0.59375 -0.484375q-0.375 -0.1875 -0.96875 -0.1875q-0.796875 0 -1.328125 0.375q-0.53125 0.359375 -0.53125 0.921875q0 0.5 0.359375 0.796875q0.375 0.28125 1.140625 0.484375l1.296875 0.3125q1.171875 0.28125 1.734375 0.875q0.578125 0.578125 0.578125 1.484375q0 0.75 -0.4375 1.34375q-0.421875 0.59375 -1.1875 0.9375q-0.765625 0.34375 -1.78125 0.34375q-1.328125 0 -2.203125 -0.578125q-0.875 -0.59375 -1.109375 -1.703125l1.265625 -0.3125q0.1875 0.703125 0.6875 1.0625q0.515625 0.34375 1.34375 0.34375q0.9375 0 1.484375 -0.390625q0.5625 -0.40625 0.5625 -0.96875q0 -0.453125 -0.328125 -0.765625q-0.3125 -0.3125 -0.96875 -0.46875l-1.453125 -0.34375q-1.203125 -0.28125 -1.765625 -0.875q-0.5625 -0.609375 -0.5625 -1.5q0 -0.75 0.421875 -1.3125q0.421875 -0.5625 1.140625 -0.890625q0.71875 -0.328125 1.640625 -0.328125q1.296875 0 2.03125 0.578125q0.75 0.5625 1.0625 1.5zm2.1917114 6.765625l0 -8.734375l1.328125 0l0 8.734375l-1.328125 0zm0.671875 -10.1875q-0.390625 0 -0.671875 -0.265625q-0.28125 -0.265625 -0.28125 -0.640625q0 -0.375 0.28125 -0.640625q0.28125 -0.265625 0.671875 -0.265625q0.390625 0 0.671875 0.265625q0.28125 0.265625 0.28125 0.640625q0 0.375 -0.28125 0.640625q-0.28125 0.265625 -0.671875 0.265625zm6.654785 10.375q-1.171875 0 -2.0625 -0.5625q-0.890625 -0.5625 -1.390625 -1.578125q-0.5 -1.015625 -0.5 -2.359375q0 -1.375 0.5 -2.390625q0.5 -1.015625 1.390625 -1.578125q0.890625 -0.5625 2.0625 -0.5625q1.1875 0 2.078125 0.5625q0.890625 0.5625 1.390625 1.578125q0.5 1.015625 0.5 2.390625q0 1.34375 -0.5 2.359375q-0.5 1.015625 -1.390625 1.578125q-0.890625 0.5625 -2.078125 0.5625zm0 -1.203125q0.90625 0 1.484375 -0.453125q0.578125 -0.46875 0.859375 -1.21875q0.28125 -0.75 0.28125 -1.625q0 -0.875 -0.28125 -1.625q-0.28125 -0.765625 -0.859375 -1.234375q-0.578125 -0.46875 -1.484375 -0.46875q-0.890625 0 -1.46875 0.46875q-0.578125 0.46875 -0.859375 1.234375q-0.28125 0.75 -0.28125 1.625q0 0.875 0.28125 1.625q0.28125 0.75 0.859375 1.21875q0.578125 0.453125 1.46875 0.453125zm7.342224 -4.234375l0 5.25l-1.328125 0l0 -8.734375l1.28125 0l0 1.375l0.125 0q0.296875 -0.671875 0.921875 -1.078125q0.625 -0.40625 1.625 -0.40625q0.875 0 1.53125 0.359375q0.671875 0.359375 1.046875 1.09375q0.375 0.734375 0.375 1.84375l0 5.546875l-1.34375 0l0 -5.453125q0 -1.03125 -0.53125 -1.609375q-0.53125 -0.578125 -1.46875 -0.578125q-0.640625 0 -1.15625 0.28125q-0.5 0.28125 -0.796875 0.8125q-0.28125 0.53125 -0.28125 1.296875z" fill-rule="nonzero"/></g></svg>